<svg id="visual" viewBox="0 0 960 540" width="960" height="540" xmlns="http://www.w3.org/2000/svg" xmlns:xlink="http://www.w3.org/1999/xlink" version="1.1"><rect x="0" y="0" width="960" height="540" fill="#c7b6aa"></rect><defs><linearGradient id="grad1_0" x1="43.8%" y1="0%" x2="100%" y2="100%"><stop offset="14.444444444444446%" stop-color="#8f695f" stop-opacity="1"></stop><stop offset="85.55555555555554%" stop-color="#8f695f" stop-opacity="1"></stop></linearGradient></defs><defs><linearGradient id="grad1_1" x1="43.8%" y1="0%" x2="100%" y2="100%"><stop offset="14.444444444444446%" stop-color="#8f695f" stop-opacity="1"></stop><stop offset="85.55555555555554%" stop-color="#ab8f82" stop-opacity="1"></stop></linearGradient></defs><defs><linearGradient id="grad1_2" x1="43.8%" y1="0%" x2="100%" y2="100%"><stop offset="14.444444444444446%" stop-color="#c7b6aa" stop-opacity="1"></stop><stop offset="85.55555555555554%" stop-color="#ab8f82" stop-opacity="1"></stop></linearGradient></defs><defs><linearGradient id="grad2_0" x1="0%" y1="0%" x2="56.3%" y2="100%"><stop offset="14.444444444444446%" stop-color="#8f695f" stop-opacity="1"></stop><stop offset="85.55555555555554%" stop-color="#8f695f" stop-opacity="1"></stop></linearGradient></defs><defs><linearGradient id="grad2_1" x1="0%" y1="0%" x2="56.3%" y2="100%"><stop offset="14.444444444444446%" stop-color="#ab8f82" stop-opacity="1"></stop><stop offset="85.55555555555554%" stop-color="#8f695f" stop-opacity="1"></stop></linearGradient></defs><defs><linearGradient id="grad2_2" x1="0%" y1="0%" x2="56.3%" y2="100%"><stop offset="14.444444444444446%" stop-color="#ab8f82" stop-opacity="1"></stop><stop offset="85.55555555555554%" stop-color="#c7b6aa" stop-opacity="1"></stop></linearGradient></defs><g transform="translate(960, 0)"><path d="M0 351C-28.7 340.6 -57.4 330.1 -86.4 322.6C-115.5 315.1 -144.8 310.5 -173 299.6C-201.2 288.8 -228.4 271.6 -248.2 248.2C-268 224.8 -280.3 195 -288.4 166.5C-296.5 138 -300.3 110.6 -310.1 83.1C-319.8 55.5 -335.4 27.8 -351 0L0 0Z" fill="#b9a296"></path><path d="M0 234C-19.1 227 -38.3 220.1 -57.6 215.1C-77 210.1 -96.5 207 -115.3 199.8C-134.2 192.5 -152.3 181.1 -165.5 165.5C-178.6 149.8 -186.9 130 -192.3 111C-197.7 92 -200.2 73.8 -206.7 55.4C-213.2 37 -223.6 18.5 -234 0L0 0Z" fill="#9d7c70"></path><path d="M0 117C-9.6 113.5 -19.1 110 -28.8 107.5C-38.5 105 -48.3 103.5 -57.7 99.9C-67.1 96.3 -76.1 90.5 -82.7 82.7C-89.3 74.9 -93.4 65 -96.1 55.5C-98.8 46 -100.1 36.9 -103.4 27.7C-106.6 18.5 -111.8 9.3 -117 0L0 0Z" fill="#8f695f"></path></g><g transform="translate(0, 540)"><path d="M0 -351C30.5 -348.7 61 -346.4 90.8 -339C120.7 -331.7 149.9 -319.3 173.5 -300.5C197.1 -281.7 215.2 -256.5 232.6 -232.6C250 -208.7 266.7 -186.1 280.6 -162C294.5 -137.9 305.6 -112.2 316.8 -84.9C328.1 -57.6 339.5 -28.8 351 0L0 0Z" fill="#b9a296"></path><path d="M0 -234C20.3 -232.5 40.7 -230.9 60.6 -226C80.5 -221.1 99.9 -212.9 115.7 -200.3C131.4 -187.8 143.5 -171 155.1 -155.1C166.7 -139.2 177.8 -124.1 187.1 -108C196.3 -91.9 203.7 -74.8 211.2 -56.6C218.7 -38.4 226.4 -19.2 234 0L0 0Z" fill="#9d7c70"></path><path d="M0 -117C10.2 -116.2 20.3 -115.5 30.3 -113C40.2 -110.6 50 -106.4 57.8 -100.2C65.7 -93.9 71.7 -85.5 77.5 -77.5C83.3 -69.6 88.9 -62 93.5 -54C98.2 -46 101.9 -37.4 105.6 -28.3C109.4 -19.2 113.2 -9.6 117 0L0 0Z" fill="#8f695f"></path></g></svg>