<svg id="visual" viewBox="0 0 900 600" width="900" height="600" xmlns="http://www.w3.org/2000/svg" xmlns:xlink="http://www.w3.org/1999/xlink" version="1.1"><rect x="0" y="0" width="900" height="600" fill="#3a1851"></rect><path d="M0 407L129 378L257 364L386 438L514 414L643 444L771 389L900 399L900 601L771 601L643 601L514 601L386 601L257 601L129 601L0 601Z" fill="#7e33d8"></path><path d="M0 420L129 444L257 434L386 395L514 404L643 466L771 433L900 480L900 601L771 601L643 601L514 601L386 601L257 601L129 601L0 601Z" fill="#643ace"></path><path d="M0 481L129 493L257 476L386 473L514 463L643 460L771 455L900 477L900 601L771 601L643 601L514 601L386 601L257 601L129 601L0 601Z" fill="#4a3ec2"></path><path d="M0 536L129 490L257 529L386 507L514 484L643 505L771 535L900 511L900 601L771 601L643 601L514 601L386 601L257 601L129 601L0 601Z" fill="#303fb5"></path><path d="M0 532L129 536L257 527L386 562L514 545L643 527L771 529L900 539L900 601L771 601L643 601L514 601L386 601L257 601L129 601L0 601Z" fill="#123fa6"></path></svg>