<svg width="950" height="180" viewBox="0 0 950 180" fill="none" xmlns="http://www.w3.org/2000/svg">
<rect width="950" height="180" rx="30" fill="#C7B6AA"/>
<circle cx="108" cy="90" r="75" fill="black"/>
<path d="M156.863 134H137.549V82.0508C137.549 76.4401 137.791 70.2441 138.275 63.4629H137.791C136.782 68.791 135.874 72.6257 135.066 74.9668L114.723 134H98.7383L78.0312 75.5723C77.4661 73.998 76.5579 69.9616 75.3066 63.4629H74.7617C75.2865 72.0202 75.5488 79.528 75.5488 85.9863V134H57.9297V47.1758H86.5684L104.309 98.6406C105.721 102.758 106.751 106.895 107.396 111.053H107.76C108.85 106.249 110 102.072 111.211 98.5195L128.951 47.1758H156.863V134Z" fill="#C7B6AA"/>
<line x1="99.9366" y1="76.5003" x2="118.675" y2="149.122" stroke="black" stroke-width="4"/>
<path d="M226.639 134H208.535V125.1H208.293C204.135 132.042 197.98 135.514 189.826 135.514C183.812 135.514 179.069 133.818 175.598 130.428C172.167 126.997 170.451 122.436 170.451 116.744C170.451 104.715 177.576 97.7728 191.824 95.916L208.656 93.6758C208.656 86.8945 204.983 83.5039 197.637 83.5039C190.25 83.5039 183.227 85.7038 176.566 90.1035V75.6934C179.23 74.321 182.863 73.11 187.465 72.0605C192.107 71.0111 196.325 70.4863 200.119 70.4863C217.799 70.4863 226.639 79.306 226.639 96.9453V134ZM208.656 108.812V104.635L197.395 106.088C191.178 106.895 188.07 109.701 188.07 114.504C188.07 116.684 188.817 118.48 190.311 119.893C191.844 121.265 193.903 121.951 196.486 121.951C200.079 121.951 203.005 120.72 205.266 118.258C207.526 115.755 208.656 112.607 208.656 108.812ZM301.656 72L281.191 102.031L301.535 134H279.496L270.535 117.289C269.809 115.957 268.941 114.08 267.932 111.658H267.689C267.084 113.354 266.257 115.17 265.207 117.107L256.186 134H234.207L255.156 103.121L235.479 72H257.639L266.479 89.377C267.649 91.6777 268.477 93.6152 268.961 95.1895H269.203C269.849 93.2923 270.717 91.3145 271.807 89.2559L280.828 72H301.656ZM374.434 130.912C368.096 133.98 359.822 135.514 349.609 135.514C336.289 135.514 325.814 131.598 318.186 123.768C310.557 115.937 306.742 105.503 306.742 92.4648C306.742 78.5794 311.021 67.3177 319.578 58.6797C328.176 50.0417 339.316 45.7227 353 45.7227C361.477 45.7227 368.621 46.7923 374.434 48.9316V67.7617C368.621 64.2904 362.001 62.5547 354.574 62.5547C346.421 62.5547 339.841 65.1178 334.836 70.2441C329.831 75.3704 327.328 82.3132 327.328 91.0723C327.328 99.4681 329.689 106.169 334.412 111.174C339.135 116.139 345.492 118.621 353.484 118.621C361.113 118.621 368.096 116.764 374.434 113.051V130.912ZM417.24 135.514C406.907 135.514 398.773 132.628 392.84 126.855C386.947 121.043 384 113.172 384 103.242C384 92.9896 387.068 84.9772 393.203 79.2051C399.339 73.3926 407.633 70.4863 418.088 70.4863C428.381 70.4863 436.454 73.3926 442.307 79.2051C448.16 84.9772 451.086 92.6263 451.086 102.152C451.086 112.445 448.059 120.579 442.004 126.553C435.99 132.527 427.735 135.514 417.24 135.514ZM417.725 85.1387C413.204 85.1387 409.692 86.6927 407.189 89.8008C404.687 92.9089 403.436 97.3086 403.436 103C403.436 114.908 408.239 120.861 417.846 120.861C427.008 120.861 431.59 114.746 431.59 102.516C431.59 90.931 426.968 85.1387 417.725 85.1387ZM561.947 134H542.875V98.6406C542.875 89.6393 539.565 85.1387 532.945 85.1387C529.797 85.1387 527.234 86.4909 525.256 89.1953C523.278 91.8997 522.289 95.2702 522.289 99.3066V134H503.156V98.2773C503.156 89.5182 499.907 85.1387 493.408 85.1387C490.139 85.1387 487.515 86.4303 485.537 89.0137C483.6 91.597 482.631 95.1087 482.631 99.5488V134H463.498V72H482.631V81.6875H482.873C484.851 78.3776 487.616 75.6934 491.168 73.6348C494.76 71.5358 498.676 70.4863 502.914 70.4863C511.673 70.4863 517.667 74.3411 520.896 82.0508C525.619 74.3411 532.562 70.4863 541.725 70.4863C555.206 70.4863 561.947 78.8014 561.947 95.4316V134ZM675.533 134H656.461V98.6406C656.461 89.6393 653.151 85.1387 646.531 85.1387C643.383 85.1387 640.82 86.4909 638.842 89.1953C636.864 91.8997 635.875 95.2702 635.875 99.3066V134H616.742V98.2773C616.742 89.5182 613.493 85.1387 606.994 85.1387C603.725 85.1387 601.101 86.4303 599.123 89.0137C597.186 91.597 596.217 95.1087 596.217 99.5488V134H577.084V72H596.217V81.6875H596.459C598.437 78.3776 601.202 75.6934 604.754 73.6348C608.346 71.5358 612.262 70.4863 616.5 70.4863C625.259 70.4863 631.253 74.3411 634.482 82.0508C639.205 74.3411 646.148 70.4863 655.311 70.4863C668.792 70.4863 675.533 78.8014 675.533 95.4316V134ZM746.373 108.449H705.928C706.574 117.451 712.245 121.951 722.941 121.951C729.763 121.951 735.757 120.337 740.924 117.107V130.912C735.192 133.98 727.745 135.514 718.582 135.514C708.572 135.514 700.801 132.749 695.271 127.219C689.742 121.648 686.977 113.898 686.977 103.969C686.977 93.6758 689.964 85.5221 695.938 79.5078C701.911 73.4935 709.258 70.4863 717.977 70.4863C727.018 70.4863 734.001 73.1706 738.926 78.5391C743.891 83.9076 746.373 91.1934 746.373 100.396V108.449ZM728.633 96.7031C728.633 87.8229 725.04 83.3828 717.855 83.3828C714.788 83.3828 712.124 84.6543 709.863 87.1973C707.643 89.7402 706.291 92.9089 705.807 96.7031H728.633ZM798.201 89.2559C795.9 88.0046 793.216 87.3789 790.148 87.3789C785.991 87.3789 782.742 88.9128 780.4 91.9805C778.059 95.0078 776.889 99.1452 776.889 104.393V134H757.756V72H776.889V83.5039H777.131C780.158 75.1081 785.607 70.9102 793.479 70.9102C795.497 70.9102 797.071 71.1523 798.201 71.6367V89.2559ZM854.146 131.76C849.827 134.262 843.591 135.514 835.438 135.514C825.911 135.514 818.202 132.628 812.309 126.855C806.415 121.083 803.469 113.636 803.469 104.514C803.469 93.9785 806.617 85.6836 812.914 79.6289C819.251 73.5339 827.708 70.4863 838.283 70.4863C845.589 70.4863 850.877 71.4551 854.146 73.3926V89.6191C850.15 86.6322 845.69 85.1387 840.766 85.1387C835.276 85.1387 830.917 86.7533 827.688 89.9824C824.499 93.1712 822.904 97.5911 822.904 103.242C822.904 108.732 824.438 113.051 827.506 116.199C830.574 119.307 834.792 120.861 840.16 120.861C844.923 120.861 849.585 119.368 854.146 116.381V131.76ZM922.443 108.449H881.998C882.644 117.451 888.315 121.951 899.012 121.951C905.833 121.951 911.827 120.337 916.994 117.107V130.912C911.262 133.98 903.815 135.514 894.652 135.514C884.642 135.514 876.872 132.749 871.342 127.219C865.812 121.648 863.047 113.898 863.047 103.969C863.047 93.6758 866.034 85.5221 872.008 79.5078C877.982 73.4935 885.328 70.4863 894.047 70.4863C903.089 70.4863 910.072 73.1706 914.996 78.5391C919.961 83.9076 922.443 91.1934 922.443 100.396V108.449ZM904.703 96.7031C904.703 87.8229 901.111 83.3828 893.926 83.3828C890.858 83.3828 888.194 84.6543 885.934 87.1973C883.714 89.7402 882.361 92.9089 881.877 96.7031H904.703Z" fill="black"/>
</svg>
