<svg width="150" height="165" viewBox="0 0 150 165" fill="none" xmlns="http://www.w3.org/2000/svg">
<path d="M75 165C116.421 165 150 131.421 150 90C150 48.5786 116.421 15 75 15C33.5786 15 0 48.5786 0 90C0 131.421 33.5786 165 75 165Z" fill="black"/>
<path d="M123.863 134H104.549V82.0508C104.549 76.4401 104.791 70.2441 105.275 63.4629H104.791C103.782 68.791 102.874 72.6257 102.066 74.9668L81.7227 134H65.7383L45.0312 75.5723C44.4661 73.998 43.5579 69.9616 42.3066 63.4629H41.7617C42.2865 72.0202 42.5488 79.528 42.5488 85.9863V134H24.9297V47.1758H53.5684L71.3086 98.6406C72.7214 102.758 73.7507 106.895 74.3965 111.053H74.7598C75.8496 106.249 77 102.072 78.2109 98.5195L95.9512 47.1758H123.863V134Z" fill="#D8D4D4"/>
<path d="M66.9366 76.5002L85.6749 149.122" stroke="black" stroke-width="4"/>
</svg>
