<svg width="705" height="165" viewBox="0 0 705 165" fill="none" xmlns="http://www.w3.org/2000/svg">
<path d="M75 157C116.421 157 150 123.421 150 82C150 40.5786 116.421 7 75 7C33.5786 7 0 40.5786 0 82C0 123.421 33.5786 157 75 157Z" fill="black"/>
<path d="M123.863 126H104.549V74.0508C104.549 68.4401 104.791 62.2441 105.275 55.4629H104.791C103.782 60.791 102.874 64.6257 102.066 66.9668L81.7227 126H65.7383L45.0312 67.5723C44.4661 65.998 43.5579 61.9616 42.3066 55.4629H41.7617C42.2865 64.0202 42.5488 71.528 42.5488 77.9863V126H24.9297V39.1758H53.5684L71.3086 90.6406C72.7214 94.758 73.7507 98.895 74.3965 103.053H74.7598C75.8496 98.249 77 94.072 78.2109 90.5195L95.9512 39.1758H123.863V126Z" fill="#D8D4D4"/>
<path d="M66.9366 68.5002L85.6749 141.122" stroke="black" stroke-width="4"/>
<path d="M170.933 125.378C166.169 125.378 161.834 124.144 157.931 121.675C154.027 119.206 150.898 115.934 148.544 111.858C146.248 107.725 145.1 103.161 145.1 98.1667C145.1 93.1722 146.248 88.6083 148.544 84.475C150.898 80.3417 154.027 77.0694 157.931 74.6583C161.834 72.1898 166.169 70.9556 170.933 70.9556C174.263 70.9556 177.306 71.5583 180.061 72.7639C182.817 73.912 185.17 75.5194 187.122 77.5861V72.3333H200.039V124H187.122V118.747C185.17 120.814 182.817 122.45 180.061 123.656C177.306 124.804 174.263 125.378 170.933 125.378ZM172.742 112.203C175.268 112.203 177.564 111.571 179.631 110.308C181.697 109.045 183.333 107.352 184.539 105.228C185.802 103.104 186.433 100.75 186.433 98.1667C186.433 95.5833 185.802 93.2296 184.539 91.1056C183.333 88.9815 181.697 87.288 179.631 86.025C177.564 84.762 175.268 84.1306 172.742 84.1306C170.216 84.1306 167.919 84.762 165.853 86.025C163.786 87.288 162.121 88.9815 160.858 91.1056C159.653 93.2296 159.05 95.5833 159.05 98.1667C159.05 100.75 159.653 103.104 160.858 105.228C162.121 107.352 163.786 109.045 165.853 110.308C167.919 111.571 170.216 112.203 172.742 112.203ZM206.729 124L224.554 97.0472L208.193 72.3333H224.726L229.72 80.2556C230.352 81.2315 230.955 82.2648 231.529 83.3556C232.16 84.4463 232.763 85.5657 233.337 86.7139C233.968 85.5657 234.571 84.475 235.145 83.4417C235.777 82.3509 236.408 81.2889 237.04 80.2556L241.948 72.3333H258.309L241.862 97.0472L259.773 124H243.068L236.093 112.719C235.576 111.916 235.059 111.083 234.543 110.222C234.026 109.304 233.538 108.414 233.079 107.553C232.619 108.414 232.131 109.304 231.615 110.222C231.098 111.083 230.581 111.916 230.065 112.719L223.09 124H206.729ZM303.889 125.55C298.206 125.55 292.895 124.517 287.958 122.45C283.021 120.326 278.658 117.427 274.869 113.753C271.138 110.079 268.21 105.802 266.086 100.922C263.962 96.0426 262.9 90.8185 262.9 85.25C262.9 79.6815 263.962 74.4574 266.086 69.5778C268.21 64.6981 271.138 60.4213 274.869 56.7472C278.658 53.0731 283.021 50.2028 287.958 48.1361C292.895 46.012 298.206 44.95 303.889 44.95C308.998 44.95 313.82 45.7824 318.356 47.4472C322.891 49.112 326.938 51.4657 330.497 54.5083L326.106 72.5917C323.981 69.0324 321.054 66.0472 317.322 63.6361C313.591 61.1676 309.285 59.9333 304.406 59.9333C299.756 59.9333 295.536 61.0815 291.747 63.3778C288.016 65.6167 285.059 68.6593 282.878 72.5056C280.696 76.2944 279.606 80.5426 279.606 85.25C279.606 89.9 280.696 94.1481 282.878 97.9944C285.059 101.841 288.016 104.912 291.747 107.208C295.536 109.447 299.756 110.567 304.406 110.567C309.228 110.567 313.505 109.361 317.236 106.95C321.025 104.481 323.981 101.468 326.106 97.9083L330.497 115.992C326.881 118.977 322.805 121.331 318.269 123.053C313.792 124.718 308.998 125.55 303.889 125.55ZM364.207 125.722C359.098 125.722 354.419 124.488 350.171 122.019C345.923 119.551 342.536 116.221 340.01 112.031C337.541 107.84 336.307 103.219 336.307 98.1667C336.307 93.0574 337.541 88.4361 340.01 84.3028C342.536 80.112 345.923 76.7824 350.171 74.3139C354.419 71.8454 359.098 70.6111 364.207 70.6111C369.374 70.6111 374.052 71.8454 378.243 74.3139C382.491 76.7824 385.85 80.112 388.318 84.3028C390.844 88.4361 392.107 93.0574 392.107 98.1667C392.107 103.219 390.844 107.84 388.318 112.031C385.85 116.221 382.491 119.551 378.243 122.019C374.052 124.488 369.374 125.722 364.207 125.722ZM364.207 112.289C366.79 112.289 369.115 111.657 371.182 110.394C373.306 109.131 374.971 107.438 376.176 105.314C377.439 103.132 378.071 100.75 378.071 98.1667C378.071 95.5259 377.439 93.1435 376.176 91.0194C374.971 88.8954 373.306 87.2018 371.182 85.9389C369.115 84.6759 366.79 84.0444 364.207 84.0444C361.624 84.0444 359.27 84.6759 357.146 85.9389C355.079 87.2018 353.414 88.8954 352.151 91.0194C350.946 93.1435 350.343 95.5259 350.343 98.1667C350.343 100.75 350.946 103.132 352.151 105.314C353.414 107.438 355.079 109.131 357.146 110.394C359.27 111.657 361.624 112.289 364.207 112.289ZM400.89 124V72.3333H414.324V81.2028C416.103 78.2176 418.342 75.9213 421.04 74.3139C423.796 72.6491 427.011 71.8167 430.685 71.8167L433.957 85.0778C432.866 84.7333 431.632 84.5611 430.254 84.5611C425.949 84.5611 422.476 85.9676 419.835 88.7806C417.194 91.5361 415.874 95.4972 415.874 100.664V124H400.89ZM465.573 125.722C459.775 125.722 454.666 124.517 450.245 122.106C445.825 119.694 442.381 116.394 439.912 112.203C437.444 107.955 436.209 103.104 436.209 97.65C436.209 92.4259 437.415 87.8046 439.826 83.7861C442.237 79.7102 445.481 76.4954 449.557 74.1417C453.69 71.788 458.254 70.6111 463.248 70.6111C468.358 70.6111 472.921 71.788 476.94 74.1417C480.958 76.438 484.116 79.5954 486.412 83.6139C488.766 87.6324 489.943 92.1963 489.943 97.3056V102.558H458.426C456.991 102.558 455.613 102.472 454.293 102.3C452.972 102.128 451.652 101.927 450.332 101.697C451.02 105.142 452.714 107.955 455.412 110.136C458.168 112.26 461.67 113.322 465.918 113.322C469.19 113.322 472.118 112.662 474.701 111.342C477.342 110.021 479.495 108.385 481.159 106.433L484.432 119.867C481.848 121.819 478.92 123.282 475.648 124.258C472.433 125.234 469.075 125.722 465.573 125.722ZM449.987 92.6556C452.858 92.0241 455.67 91.7083 458.426 91.7083H467.554C469.161 91.7083 470.683 91.7657 472.118 91.8806C473.553 91.9954 474.902 92.1963 476.165 92.4833C475.304 89.3833 473.725 86.9435 471.429 85.1639C469.19 83.3843 466.406 82.4944 463.076 82.4944C459.919 82.4944 457.163 83.413 454.809 85.25C452.513 87.0296 450.906 89.4981 449.987 92.6556ZM485.89 60.45V46.5H539.796V60.45H520.851V124H504.835V60.45H485.89ZM565.597 125.722C559.799 125.722 554.689 124.517 550.269 122.106C545.849 119.694 542.404 116.394 539.936 112.203C537.467 107.955 536.233 103.104 536.233 97.65C536.233 92.4259 537.438 87.8046 539.849 83.7861C542.261 79.7102 545.504 76.4954 549.58 74.1417C553.713 71.788 558.277 70.6111 563.272 70.6111C568.381 70.6111 572.945 71.788 576.963 74.1417C580.982 76.438 584.139 79.5954 586.436 83.6139C588.789 87.6324 589.966 92.1963 589.966 97.3056V102.558H558.449C557.014 102.558 555.637 102.472 554.316 102.3C552.996 102.128 551.675 101.927 550.355 101.697C551.044 105.142 552.737 107.955 555.436 110.136C558.191 112.26 561.693 113.322 565.941 113.322C569.213 113.322 572.141 112.662 574.724 111.342C577.365 110.021 579.518 108.385 581.183 106.433L584.455 119.867C581.872 121.819 578.944 123.282 575.672 124.258C572.457 125.234 569.099 125.722 565.597 125.722ZM550.011 92.6556C552.881 92.0241 555.694 91.7083 558.449 91.7083H567.577C569.185 91.7083 570.706 91.7657 572.141 91.8806C573.576 91.9954 574.925 92.1963 576.188 92.4833C575.327 89.3833 573.749 86.9435 571.452 85.1639C569.213 83.3843 566.429 82.4944 563.099 82.4944C559.942 82.4944 557.187 83.413 554.833 85.25C552.537 87.0296 550.929 89.4981 550.011 92.6556ZM623.59 125.722C618.481 125.722 613.802 124.488 609.554 122.019C605.306 119.551 601.919 116.221 599.393 112.031C596.924 107.84 595.69 103.219 595.69 98.1667C595.69 93.0574 596.924 88.4361 599.393 84.3028C601.919 80.112 605.306 76.7824 609.554 74.3139C613.802 71.8454 618.481 70.6111 623.59 70.6111C627.149 70.6111 630.507 71.2139 633.665 72.4194C636.88 73.5676 639.721 75.2898 642.19 77.5861L638.315 92.8278C636.88 90.4741 634.957 88.4361 632.545 86.7139C630.192 84.9343 627.407 84.0444 624.193 84.0444C621.494 84.0444 619.083 84.6759 616.959 85.9389C614.835 87.2018 613.17 88.8954 611.965 91.0194C610.759 93.1435 610.157 95.5259 610.157 98.1667C610.157 100.75 610.759 103.132 611.965 105.314C613.17 107.438 614.835 109.131 616.959 110.394C619.083 111.657 621.494 112.289 624.193 112.289C627.407 112.289 630.192 111.428 632.545 109.706C634.957 107.926 636.88 105.859 638.315 103.506L642.19 118.747C639.721 121.044 636.88 122.794 633.665 124C630.507 125.148 627.149 125.722 623.59 125.722ZM649.98 124V41.3333H664.964V76.2083C666.801 74.3713 668.896 72.9935 671.25 72.075C673.661 71.0991 676.215 70.6111 678.914 70.6111C682.588 70.6111 686.003 71.5009 689.161 73.2806C692.376 75.0028 694.959 77.5574 696.911 80.9444C698.92 84.2741 699.925 88.3213 699.925 93.0861V124H684.941V95.0667C684.941 92.1963 684.08 89.6417 682.358 87.4028C680.636 85.1639 678.167 84.0444 674.952 84.0444C672.369 84.0444 670.044 84.9343 667.977 86.7139C665.968 88.4361 664.964 91.163 664.964 94.8944V124H649.98Z" fill="black"/>
</svg>
