<svg id="visual" viewBox="0 0 900 600" width="900" height="600" xmlns="http://www.w3.org/2000/svg" xmlns:xlink="http://www.w3.org/1999/xlink" version="1.1"><path d="M0 43L300 61L600 43L900 49L900 0L600 0L300 0L0 0Z" fill="#001829"></path><path d="M0 145L300 229L600 187L900 211L900 47L600 41L300 59L0 41Z" fill="#05273c"></path><path d="M0 217L300 289L600 259L900 289L900 209L600 185L300 227L0 143Z" fill="#0c3650"></path><path d="M0 241L300 319L600 301L900 343L900 287L600 257L300 287L0 215Z" fill="#144765"></path><path d="M0 427L300 481L600 451L900 445L900 341L600 299L300 317L0 239Z" fill="#1b597a"></path><path d="M0 535L300 541L600 535L900 535L900 443L600 449L300 479L0 425Z" fill="#226b90"></path><path d="M0 601L300 601L600 601L900 601L900 533L600 533L300 539L0 533Z" fill="#297ea6"></path></svg>