<svg id="visual" viewBox="0 0 960 540" width="960" height="540" xmlns="http://www.w3.org/2000/svg" xmlns:xlink="http://www.w3.org/1999/xlink" version="1.1"><path d="M0 44L107 44L107 39L213 39L213 33L320 33L320 39L427 39L427 50L533 50L533 55L640 55L640 55L747 55L747 33L853 33L853 44L960 44L960 39L960 0L960 0L853 0L853 0L747 0L747 0L640 0L640 0L533 0L533 0L427 0L427 0L320 0L320 0L213 0L213 0L107 0L107 0L0 0Z" fill="#c7b6aa"></path><path d="M0 71L107 71L107 77L213 77L213 71L320 71L320 60L427 60L427 77L533 77L533 77L640 77L640 82L747 82L747 71L853 71L853 77L960 77L960 71L960 37L960 42L853 42L853 31L747 31L747 53L640 53L640 53L533 53L533 48L427 48L427 37L320 37L320 31L213 31L213 37L107 37L107 42L0 42Z" fill="#c0aca0"></path><path d="M0 147L107 147L107 222L213 222L213 190L320 190L320 158L427 158L427 185L533 185L533 190L640 190L640 212L747 212L747 206L853 206L853 158L960 158L960 158L960 69L960 75L853 75L853 69L747 69L747 80L640 80L640 75L533 75L533 75L427 75L427 58L320 58L320 69L213 69L213 75L107 75L107 69L0 69Z" fill="#b9a295"></path><path d="M0 195L107 195L107 266L213 266L213 217L320 217L320 201L427 201L427 217L533 217L533 233L640 233L640 255L747 255L747 244L853 244L853 206L960 206L960 195L960 156L960 156L853 156L853 204L747 204L747 210L640 210L640 188L533 188L533 183L427 183L427 156L320 156L320 188L213 188L213 220L107 220L107 145L0 145Z" fill="#b2998c"></path><path d="M0 222L107 222L107 293L213 293L213 244L320 244L320 239L427 239L427 255L533 255L533 271L640 271L640 287L747 287L747 287L853 287L853 239L960 239L960 239L960 193L960 204L853 204L853 242L747 242L747 253L640 253L640 231L533 231L533 215L427 215L427 199L320 199L320 215L213 215L213 264L107 264L107 193L0 193Z" fill="#ab8f82"></path><path d="M0 255L107 255L107 314L213 314L213 271L320 271L320 260L427 260L427 282L533 282L533 298L640 298L640 320L747 320L747 320L853 320L853 276L960 276L960 276L960 237L960 237L853 237L853 285L747 285L747 285L640 285L640 269L533 269L533 253L427 253L427 237L320 237L320 242L213 242L213 291L107 291L107 220L0 220Z" fill="#a48579"></path><path d="M0 341L107 341L107 374L213 374L213 336L320 336L320 336L427 336L427 341L533 341L533 363L640 363L640 401L747 401L747 411L853 411L853 330L960 330L960 325L960 274L960 274L853 274L853 318L747 318L747 318L640 318L640 296L533 296L533 280L427 280L427 258L320 258L320 269L213 269L213 312L107 312L107 253L0 253Z" fill="#9d7c70"></path><path d="M0 476L107 476L107 498L213 498L213 498L320 498L320 482L427 482L427 487L533 487L533 492L640 492L640 492L747 492L747 498L853 498L853 482L960 482L960 482L960 323L960 328L853 328L853 409L747 409L747 399L640 399L640 361L533 361L533 339L427 339L427 334L320 334L320 334L213 334L213 372L107 372L107 339L0 339Z" fill="#967267"></path><path d="M0 541L107 541L107 541L213 541L213 541L320 541L320 541L427 541L427 541L533 541L533 541L640 541L640 541L747 541L747 541L853 541L853 541L960 541L960 541L960 480L960 480L853 480L853 496L747 496L747 490L640 490L640 490L533 490L533 485L427 485L427 480L320 480L320 496L213 496L213 496L107 496L107 474L0 474Z" fill="#8f695f"></path></svg>