<svg width="796" height="180" viewBox="0 0 796 180" fill="none" xmlns="http://www.w3.org/2000/svg">
<rect width="796" height="180" rx="30" fill="#C7B6AA"/>
<circle cx="120" cy="93" r="75" fill="black"/>
<path d="M168.863 137H149.549V85.0508C149.549 79.4401 149.791 73.2441 150.275 66.4629H149.791C148.782 71.791 147.874 75.6257 147.066 77.9668L126.723 137H110.738L90.0312 78.5723C89.4661 76.998 88.5579 72.9616 87.3066 66.4629H86.7617C87.2865 75.0202 87.5488 82.528 87.5488 88.9863V137H69.9297V50.1758H98.5684L116.309 101.641C117.721 105.758 118.751 109.895 119.396 114.053H119.76C120.85 109.249 122 105.072 123.211 101.52L140.951 50.1758H168.863V137Z" fill="#C7B6AA"/>
<line x1="111.937" y1="79.5003" x2="130.675" y2="152.122" stroke="black" stroke-width="4"/>
<path d="M216.933 132.378C212.169 132.378 207.834 131.144 203.931 128.675C200.027 126.206 196.898 122.934 194.544 118.858C192.248 114.725 191.1 110.161 191.1 105.167C191.1 100.172 192.248 95.6083 194.544 91.475C196.898 87.3417 200.027 84.0694 203.931 81.6583C207.834 79.1898 212.169 77.9556 216.933 77.9556C220.263 77.9556 223.306 78.5583 226.061 79.7639C228.817 80.912 231.17 82.5194 233.122 84.5861V79.3333H246.039V131H233.122V125.747C231.17 127.814 228.817 129.45 226.061 130.656C223.306 131.804 220.263 132.378 216.933 132.378ZM218.742 119.203C221.268 119.203 223.564 118.571 225.631 117.308C227.697 116.045 229.333 114.352 230.539 112.228C231.802 110.104 232.433 107.75 232.433 105.167C232.433 102.583 231.802 100.23 230.539 98.1056C229.333 95.9815 227.697 94.288 225.631 93.025C223.564 91.762 221.268 91.1306 218.742 91.1306C216.216 91.1306 213.919 91.762 211.853 93.025C209.786 94.288 208.121 95.9815 206.858 98.1056C205.653 100.23 205.05 102.583 205.05 105.167C205.05 107.75 205.653 110.104 206.858 112.228C208.121 114.352 209.786 116.045 211.853 117.308C213.919 118.571 216.216 119.203 218.742 119.203ZM252.729 131L270.554 104.047L254.193 79.3333H270.726L275.72 87.2556C276.352 88.2315 276.955 89.2648 277.529 90.3556C278.16 91.4463 278.763 92.5657 279.337 93.7139C279.968 92.5657 280.571 91.475 281.145 90.4417C281.777 89.3509 282.408 88.2889 283.04 87.2556L287.948 79.3333H304.309L287.862 104.047L305.773 131H289.068L282.093 119.719C281.576 118.916 281.059 118.083 280.543 117.222C280.026 116.304 279.538 115.414 279.079 114.553C278.619 115.414 278.131 116.304 277.615 117.222C277.098 118.083 276.581 118.916 276.065 119.719L269.09 131H252.729ZM349.889 132.55C344.206 132.55 338.895 131.517 333.958 129.45C329.021 127.326 324.658 124.427 320.869 120.753C317.138 117.079 314.21 112.802 312.086 107.922C309.962 103.043 308.9 97.8185 308.9 92.25C308.9 86.6815 309.962 81.4574 312.086 76.5778C314.21 71.6981 317.138 67.4213 320.869 63.7472C324.658 60.0731 329.021 57.2028 333.958 55.1361C338.895 53.012 344.206 51.95 349.889 51.95C354.998 51.95 359.82 52.7824 364.356 54.4472C368.891 56.112 372.938 58.4657 376.497 61.5083L372.106 79.5917C369.981 76.0324 367.054 73.0472 363.322 70.6361C359.591 68.1676 355.285 66.9333 350.406 66.9333C345.756 66.9333 341.536 68.0815 337.747 70.3778C334.016 72.6167 331.059 75.6593 328.878 79.5056C326.696 83.2944 325.606 87.5426 325.606 92.25C325.606 96.9 326.696 101.148 328.878 104.994C331.059 108.841 334.016 111.912 337.747 114.208C341.536 116.447 345.756 117.567 350.406 117.567C355.228 117.567 359.505 116.361 363.236 113.95C367.025 111.481 369.981 108.468 372.106 104.908L376.497 122.992C372.881 125.977 368.805 128.331 364.269 130.053C359.792 131.718 354.998 132.55 349.889 132.55ZM410.207 132.722C405.098 132.722 400.419 131.488 396.171 129.019C391.923 126.551 388.536 123.221 386.01 119.031C383.541 114.84 382.307 110.219 382.307 105.167C382.307 100.057 383.541 95.4361 386.01 91.3028C388.536 87.112 391.923 83.7824 396.171 81.3139C400.419 78.8454 405.098 77.6111 410.207 77.6111C415.374 77.6111 420.052 78.8454 424.243 81.3139C428.491 83.7824 431.85 87.112 434.318 91.3028C436.844 95.4361 438.107 100.057 438.107 105.167C438.107 110.219 436.844 114.84 434.318 119.031C431.85 123.221 428.491 126.551 424.243 129.019C420.052 131.488 415.374 132.722 410.207 132.722ZM410.207 119.289C412.79 119.289 415.115 118.657 417.182 117.394C419.306 116.131 420.971 114.438 422.176 112.314C423.439 110.132 424.071 107.75 424.071 105.167C424.071 102.526 423.439 100.144 422.176 98.0194C420.971 95.8954 419.306 94.2018 417.182 92.9389C415.115 91.6759 412.79 91.0444 410.207 91.0444C407.624 91.0444 405.27 91.6759 403.146 92.9389C401.079 94.2018 399.414 95.8954 398.151 98.0194C396.946 100.144 396.343 102.526 396.343 105.167C396.343 107.75 396.946 110.132 398.151 112.314C399.414 114.438 401.079 116.131 403.146 117.394C405.27 118.657 407.624 119.289 410.207 119.289ZM446.89 131V79.3333H460.324V88.2028C462.103 85.2176 464.342 82.9213 467.04 81.3139C469.796 79.6491 473.011 78.8167 476.685 78.8167L479.957 92.0778C478.866 91.7333 477.632 91.5611 476.254 91.5611C471.949 91.5611 468.476 92.9676 465.835 95.7806C463.194 98.5361 461.874 102.497 461.874 107.664V131H446.89ZM511.573 132.722C505.775 132.722 500.666 131.517 496.245 129.106C491.825 126.694 488.381 123.394 485.912 119.203C483.444 114.955 482.209 110.104 482.209 104.65C482.209 99.4259 483.415 94.8046 485.826 90.7861C488.237 86.7102 491.481 83.4954 495.557 81.1417C499.69 78.788 504.254 77.6111 509.248 77.6111C514.358 77.6111 518.921 78.788 522.94 81.1417C526.958 83.438 530.116 86.5954 532.412 90.6139C534.766 94.6324 535.943 99.1963 535.943 104.306V109.558H504.426C502.991 109.558 501.613 109.472 500.293 109.3C498.972 109.128 497.652 108.927 496.332 108.697C497.02 112.142 498.714 114.955 501.412 117.136C504.168 119.26 507.67 120.322 511.918 120.322C515.19 120.322 518.118 119.662 520.701 118.342C523.342 117.021 525.495 115.385 527.159 113.433L530.432 126.867C527.848 128.819 524.92 130.282 521.648 131.258C518.433 132.234 515.075 132.722 511.573 132.722ZM495.987 99.6556C498.858 99.0241 501.67 98.7083 504.426 98.7083H513.554C515.161 98.7083 516.683 98.7657 518.118 98.8806C519.553 98.9954 520.902 99.1963 522.165 99.4833C521.304 96.3833 519.725 93.9435 517.429 92.1639C515.19 90.3843 512.406 89.4944 509.076 89.4944C505.919 89.4944 503.163 90.413 500.809 92.25C498.513 94.0296 496.906 96.4981 495.987 99.6556ZM531.89 67.45V53.5H585.796V67.45H566.851V131H550.835V67.45H531.89ZM611.597 132.722C605.799 132.722 600.689 131.517 596.269 129.106C591.849 126.694 588.404 123.394 585.936 119.203C583.467 114.955 582.233 110.104 582.233 104.65C582.233 99.4259 583.438 94.8046 585.849 90.7861C588.261 86.7102 591.504 83.4954 595.58 81.1417C599.713 78.788 604.277 77.6111 609.272 77.6111C614.381 77.6111 618.945 78.788 622.963 81.1417C626.982 83.438 630.139 86.5954 632.436 90.6139C634.789 94.6324 635.966 99.1963 635.966 104.306V109.558H604.449C603.014 109.558 601.637 109.472 600.316 109.3C598.996 109.128 597.675 108.927 596.355 108.697C597.044 112.142 598.737 114.955 601.436 117.136C604.191 119.26 607.693 120.322 611.941 120.322C615.213 120.322 618.141 119.662 620.724 118.342C623.365 117.021 625.518 115.385 627.183 113.433L630.455 126.867C627.872 128.819 624.944 130.282 621.672 131.258C618.457 132.234 615.099 132.722 611.597 132.722ZM596.011 99.6556C598.881 99.0241 601.694 98.7083 604.449 98.7083H613.577C615.185 98.7083 616.706 98.7657 618.141 98.8806C619.576 98.9954 620.925 99.1963 622.188 99.4833C621.327 96.3833 619.749 93.9435 617.452 92.1639C615.213 90.3843 612.429 89.4944 609.099 89.4944C605.942 89.4944 603.187 90.413 600.833 92.25C598.537 94.0296 596.929 96.4981 596.011 99.6556ZM669.59 132.722C664.481 132.722 659.802 131.488 655.554 129.019C651.306 126.551 647.919 123.221 645.393 119.031C642.924 114.84 641.69 110.219 641.69 105.167C641.69 100.057 642.924 95.4361 645.393 91.3028C647.919 87.112 651.306 83.7824 655.554 81.3139C659.802 78.8454 664.481 77.6111 669.59 77.6111C673.149 77.6111 676.507 78.2139 679.665 79.4194C682.88 80.5676 685.721 82.2898 688.19 84.5861L684.315 99.8278C682.88 97.4741 680.957 95.4361 678.545 93.7139C676.192 91.9343 673.407 91.0444 670.193 91.0444C667.494 91.0444 665.083 91.6759 662.959 92.9389C660.835 94.2018 659.17 95.8954 657.965 98.0194C656.759 100.144 656.157 102.526 656.157 105.167C656.157 107.75 656.759 110.132 657.965 112.314C659.17 114.438 660.835 116.131 662.959 117.394C665.083 118.657 667.494 119.289 670.193 119.289C673.407 119.289 676.192 118.428 678.545 116.706C680.957 114.926 682.88 112.859 684.315 110.506L688.19 125.747C685.721 128.044 682.88 129.794 679.665 131C676.507 132.148 673.149 132.722 669.59 132.722ZM695.98 131V48.3333H710.964V83.2083C712.801 81.3713 714.896 79.9935 717.25 79.075C719.661 78.0991 722.215 77.6111 724.914 77.6111C728.588 77.6111 732.003 78.5009 735.161 80.2806C738.376 82.0028 740.959 84.5574 742.911 87.9444C744.92 91.2741 745.925 95.3213 745.925 100.086V131H730.941V102.067C730.941 99.1963 730.08 96.6417 728.358 94.4028C726.636 92.1639 724.167 91.0444 720.952 91.0444C718.369 91.0444 716.044 91.9343 713.977 93.7139C711.968 95.4361 710.964 98.163 710.964 101.894V131H695.98Z" fill="black"/>
</svg>
